<?xml version="1.0" encoding="iso-8859-1"?>
<!-- Generator: Adobe Illustrator 19.0.0, SVG Export Plug-In . SVG Version: 6.00 Build 0)  -->
<svg version="1.1" id="Layer_1" xmlns="http://www.w3.org/2000/svg" xmlns:xlink="http://www.w3.org/1999/xlink" x="0px" y="0px"
	 viewBox="0 0 512 512" style="enable-background:new 0 0 512 512;" xml:space="preserve">
<g>
	<g>
		<path d="M486.4,102.394h-14.362c-6.989,8.175-14.626,16.666-23.066,25.6H486.4v281.6H25.6v-281.6h244.386
			c7.851-8.337,16.145-16.922,24.653-25.6H25.6c-14.14,0-25.6,11.46-25.6,25.6v281.6c0,14.14,11.46,25.6,25.6,25.6h179.2v51.2H102.4
			c-7.074,0-12.8,5.726-12.8,12.8c0,7.074,5.726,12.8,12.8,12.8h307.2c7.074,0,12.8-5.726,12.8-12.8c0-7.074-5.726-12.8-12.8-12.8
			H307.2v-51.2h179.2c14.14,0,25.6-11.46,25.6-25.6v-281.6C512,113.855,500.54,102.394,486.4,102.394z M281.6,486.394h-51.2v-51.2
			h51.2V486.394z"/>
	</g>
</g>
<g>
	<g>
		<path d="M479.206,8.169c-20.403-20.403-45.884,1.152-72.849,23.97c-22.75,19.251-51.524,46.097-81.016,75.588
			c-27.119,27.119-52.471,54.153-71.39,76.126c-2.082,2.398-3.55,5.12-4.582,7.953c-1.178,0.188-2.355,0.222-3.516,0.58
			c-39.834,12.339-48.452,35.9-54.741,53.103c-3.43,9.37-6.135,16.768-13.884,24.815c-6.81,7.074-8.969,17.425-5.564,26.633
			c1.306,3.533,3.345,6.656,5.905,9.225c4.122,4.122,9.626,6.801,15.65,7.381c61.986,5.973,76.604-31.642,84.454-51.849
			c1.178-3.029,7.552-14.003,13.03-22.81c4.582-0.708,9.062-2.244,12.817-5.47c21.982-18.918,49.016-44.271,76.126-71.381
			C453.214,88.468,506.359,35.322,479.206,8.169z M195.678,288.063c28.851-29.978,11.691-56.943,57.754-71.219l1.809,1.809
			l11.657,11.657C246.588,246.207,258.278,294.096,195.678,288.063z M361.532,143.926c-27.861,27.861-54.067,52.301-74.726,70.093
			l-1.809-1.809l-11.656-11.657c17.784-20.668,42.232-46.874,70.084-74.735C403.413,65.838,456.09,21.259,461.09,26.26
			C466.091,31.26,421.513,83.937,361.532,143.926z"/>
	</g>
</g>
<g>
</g>
<g>
</g>
<g>
</g>
<g>
</g>
<g>
</g>
<g>
</g>
<g>
</g>
<g>
</g>
<g>
</g>
<g>
</g>
<g>
</g>
<g>
</g>
<g>
</g>
<g>
</g>
<g>
</g>
</svg>
